# xmcd
#
# Track frame offsets: 
#        150
#        21469
#        36976
#        51780
#        66540
#        80713
#        92881
#        105471
#
# Disc length: 1638 seconds
#
# Revision: 0
# Processed by: cddbd v1.5.2PL0 Copyright (c) Steve Scherf et al.
# Submitted via: ExactAudioCopyFreeDBPlugin 1.0
#
DISCID=6f066408
DTITLE=Kyle Bronsdon - The Adequate Kyle Bronsdon in Electrifying 3-D!
DYEAR=2012
DGENRE=Blues
TTITLE0=Pharaoh's Horses
TTITLE1=The Hammer
TTITLE2=This Broken World
TTITLE3=My Good For Nothing wife
TTITLE4=I Didn't Get You Anything
TTITLE5=Barking At The Hole
TTITLE6=You're In Love
TTITLE7=Bygone Blues For Bear
EXTD=
EXTT0=
EXTT1=
EXTT2=
EXTT3=
EXTT4=
EXTT5=
EXTT6=
EXTT7=
PLAYORDER=
